<?xml version="1.0" standalone="no"?>
<!DOCTYPE svg PUBLIC "-//W3C//DTD SVG 20010904//EN"
 "http://www.w3.org/TR/2001/REC-SVG-20010904/DTD/svg10.dtd">
<svg version="1.0" xmlns="http://www.w3.org/2000/svg"
 width="2000.000000pt" height="2000.000000pt" viewBox="0 0 2000.000000 2000.000000"
 preserveAspectRatio="xMidYMid meet">

<g transform="translate(0.000000,2000.000000) scale(0.100000,-0.100000)"
fill="#000000" stroke="none">
<path d="M9675 17800 c-357 -17 -773 -84 -1235 -200 -819 -204 -1674 -624
-2355 -1154 -344 -268 -725 -619 -958 -883 -130 -148 -422 -507 -465 -573
l-23 -35 28 34 c313 383 437 514 707 748 365 317 753 614 1001 768 61 37 121
75 135 84 41 25 108 61 117 61 4 0 -10 -12 -31 -26 -22 -15 -46 -33 -55 -40
-38 -31 -112 -84 -181 -130 -111 -75 -422 -327 -610 -495 -168 -150 -435 -408
-506 -489 -243 -277 -398 -470 -583 -723 -67 -93 -140 -199 -162 -235 -23 -37
-51 -83 -63 -102 -195 -301 -439 -767 -599 -1141 -117 -271 -290 -769 -361
-1035 -13 -49 -38 -141 -55 -205 -97 -362 -209 -1092 -233 -1514 -13 -239 -17
-950 -5 -1100 4 -55 12 -158 17 -230 15 -193 18 -267 10 -258 -4 4 -18 40 -30
78 -12 39 -28 75 -35 80 -6 6 -13 15 -14 20 -1 6 -8 33 -16 60 -23 80 -43 257
-51 440 -3 94 -9 172 -12 175 -10 10 9 -380 29 -585 61 -643 160 -1150 333
-1716 143 -468 241 -724 436 -1139 95 -202 262 -531 310 -610 161 -264 221
-358 319 -500 62 -91 123 -176 135 -188 48 -54 114 -68 203 -46 35 9 66 14 67
13 2 -2 37 -49 78 -104 269 -358 869 -955 1221 -1215 36 -27 46 -40 42 -55 -3
-11 -13 -46 -21 -78 -20 -75 -12 -129 25 -159 14 -13 112 -80 216 -149 460
-306 991 -560 1556 -744 232 -75 683 -190 899 -229 310 -55 802 -96 1155 -96
445 1 805 45 1350 165 589 130 1268 402 1802 720 274 164 453 283 672 449 261
196 293 224 526 439 602 555 1055 1131 1482 1882 136 240 210 388 353 710 286
645 507 1397 609 2080 12 77 23 153 26 168 3 17 1 26 -5 22 -6 -3 -10 -1 -10
4 0 6 -10 11 -23 11 -13 0 -45 7 -71 16 -34 12 -46 21 -44 33 5 20 66 18 111
-4 30 -15 30 -15 13 4 -10 11 -47 35 -82 53 -72 37 -70 31 -54 163 5 44 17
205 25 357 13 221 14 285 4 318 -7 22 -17 40 -23 40 -8 0 -11 76 -10 252 1
139 -3 336 -8 437 -7 138 -6 186 3 192 12 7 11 18 -22 304 -6 50 -24 180 -40
289 -16 110 -29 206 -29 213 0 8 -4 12 -8 9 -5 -3 -7 9 -4 27 3 26 1 29 -8 17
-9 -12 -10 -5 -6 30 3 31 2 39 -4 25 -7 -17 -9 -17 -9 -3 -1 10 -8 37 -15 60
-8 24 -17 55 -20 70 -2 15 -14 62 -26 105 -12 43 -23 85 -25 93 -7 37 -57 217
-66 240 -5 14 -11 35 -14 48 -26 139 -239 749 -338 972 -131 294 -254 560
-288 623 -5 10 -7 23 -3 29 5 7 2 8 -6 3 -10 -6 -12 -4 -7 9 4 9 3 15 -2 12
-4 -3 -13 6 -20 20 -6 14 -7 23 -1 19 5 -3 7 0 4 9 -3 8 -12 17 -20 20 -8 3
-14 12 -14 20 0 17 -17 50 -47 93 -13 17 -23 34 -23 37 0 12 -172 289 -233
377 -34 49 -96 137 -137 196 -96 139 -352 477 -396 524 l-34 35 21 50 c29 64
36 167 16 216 -25 61 -373 423 -587 612 -532 470 -1083 846 -1577 1077 -610
286 -992 413 -1553 519 -424 80 -679 108 -1025 114 -159 2 -366 0 -460 -4z
m605 -640 c334 -21 828 -110 1210 -220 357 -102 823 -304 1223 -528 460 -258
1089 -763 1467 -1178 91 -99 180 -192 199 -205 48 -33 156 -39 226 -11 l50 20
38 -44 c150 -171 500 -666 690 -976 301 -492 592 -1164 766 -1765 122 -420
187 -695 225 -960 43 -291 79 -610 71 -623 -3 -6 -28 -10 -54 -10 -26 0 -74
-5 -106 -12 l-57 -11 6 -61 c3 -34 9 -220 13 -413 l6 -353 66 -1 c191 -5 174
-7 182 26 8 29 4 418 -6 565 -3 41 -8 118 -11 172 l-6 96 32 7 33 7 -7 67 c-3
36 -8 75 -10 86 -2 11 -7 58 -11 105 -4 47 -9 92 -10 100 -1 8 -6 40 -10 70
-3 30 -13 93 -20 140 -8 47 -17 110 -21 140 -16 140 -32 221 -74 365 -5 17
-14 53 -20 80 -7 28 -13 57 -15 65 -11 43 -68 259 -95 355 -17 61 -37 133 -45
160 -7 28 -26 84 -40 125 -15 41 -40 116 -56 165 -17 50 -34 99 -39 110 -20
47 -41 110 -38 116 2 3 -2 12 -8 20 -7 8 -28 55 -48 104 -20 50 -50 117 -66
150 -16 33 -30 67 -32 75 -2 8 -6 17 -9 20 -3 3 -21 42 -39 88 -19 45 -38 82
-42 82 -4 0 -8 7 -8 16 0 8 -15 44 -34 79 -18 34 -38 76 -45 92 -6 15 -15 35
-19 43 -42 73 -82 155 -82 168 0 6 -3 12 -8 12 -4 0 -18 21 -32 48 -14 26 -39
69 -57 96 -18 27 -30 53 -27 58 3 4 0 8 -5 8 -6 0 -18 15 -26 33 -8 17 -28 50
-45 72 -16 22 -29 48 -30 58 0 9 -3 17 -7 17 -8 0 -43 56 -42 67 0 3 -5 9 -12
14 -8 4 -10 11 -6 15 4 4 16 -2 27 -13 10 -12 16 -24 13 -27 -4 -3 -1 -6 6 -6
7 0 17 -13 22 -30 6 -16 15 -30 21 -30 5 0 6 -4 3 -10 -3 -5 -2 -10 3 -10 8 0
36 -50 32 -58 0 -2 12 -18 29 -37 16 -18 32 -43 36 -54 3 -12 11 -21 17 -21 6
0 9 -3 5 -6 -3 -3 16 -38 42 -77 48 -73 65 -106 63 -119 -1 -5 2 -8 6 -8 5 0
19 -21 31 -47 13 -27 34 -68 47 -93 31 -58 168 -338 201 -410 13 -30 33 -73
44 -95 10 -22 19 -44 19 -48 0 -5 8 -21 19 -35 10 -15 21 -38 25 -52 4 -14 11
-34 16 -45 13 -29 112 -288 114 -300 3 -13 34 -101 53 -145 8 -20 15 -42 17
-50 1 -8 11 -41 20 -74 10 -32 19 -64 21 -70 1 -6 4 -18 7 -26 19 -53 67 -221
107 -375 26 -99 50 -187 53 -195 4 -8 6 -22 6 -30 0 -8 10 -51 22 -95 12 -44
26 -105 30 -135 5 -30 18 -118 29 -195 12 -77 24 -158 27 -180 4 -22 8 -51 9
-65 1 -14 5 -38 8 -55 3 -16 9 -68 12 -115 4 -46 8 -87 10 -90 2 -3 6 -34 9
-68 3 -34 9 -70 14 -80 4 -9 10 -48 11 -85 2 -37 5 -80 7 -95 2 -15 6 -179 9
-364 l6 -338 -62 0 c-34 0 -60 -3 -56 -6 3 -4 0 -19 -8 -35 -11 -20 -19 -104
-30 -286 -8 -142 -19 -302 -25 -356 -5 -54 -10 -101 -10 -106 0 -4 -32 -11
-72 -15 -75 -7 -144 -31 -167 -60 -12 -14 -12 -16 3 -10 9 3 16 1 16 -5 0 -6
-9 -11 -20 -11 -11 0 -20 -2 -20 -4 0 -19 -56 -357 -80 -478 -69 -360 -127
-578 -276 -1033 -167 -509 -387 -982 -713 -1533 -134 -227 -419 -615 -651
-887 -366 -429 -781 -808 -1237 -1128 -591 -416 -1314 -741 -2003 -902 -564
-131 -827 -161 -1352 -152 -340 6 -700 34 -913 72 -141 26 -536 119 -690 164
-537 155 -1084 405 -1545 705 -182 119 -198 127 -235 123 -23 -2 -59 -16 -82
-30 l-42 -26 -73 56 c-179 140 -373 305 -488 417 -258 250 -547 566 -687 753
l-84 112 18 27 c13 20 18 47 18 94 l0 66 -121 169 c-233 327 -416 641 -611
1050 -196 412 -277 621 -423 1090 -209 673 -324 1406 -337 2155 -12 666 34
1174 166 1845 116 588 383 1352 661 1890 337 652 660 1120 1132 1642 320 354
791 754 1208 1028 422 276 997 550 1457 694 354 111 821 207 1188 246 250 26
614 32 895 15z m1687 -146 c-3 -3 -12 -4 -19 -1 -8 3 -5 6 6 6 11 1 17 -2 13
-5z m2243 -1337 c0 -4 4 -6 8 -3 5 3 76 -60 158 -139 126 -123 153 -144 173
-139 55 12 38 -62 -20 -87 -29 -12 -34 -11 -43 5 -15 25 -158 194 -223 264
-29 31 -53 62 -53 68 0 7 -8 19 -17 26 -27 20 -29 42 -3 26 11 -7 20 -16 20
-21z m655 -197 c19 -37 19 -79 0 -87 -36 -13 -81 71 -55 102 19 23 38 18 55
-15z m-167 -67 c-4 -23 -48 -31 -48 -10 0 9 6 18 13 20 25 11 38 7 35 -10z
m502 -892 c0 -8 -1 -12 -3 -10 -1 2 -11 15 -22 28 l-20 24 23 -14 c12 -8 22
-20 22 -28z m37 -41 c3 -11 9 -20 13 -20 7 0 27 -38 28 -55 0 -5 9 -12 19 -16
17 -7 17 -8 0 -8 -10 -1 -22 10 -27 24 -5 14 -14 25 -20 25 -5 0 -10 6 -10 14
0 7 -7 19 -15 26 -18 15 -20 30 -4 30 6 0 13 -9 16 -20z m-11850 -3182 c-3 -8
-6 -5 -6 6 -1 11 2 17 5 13 3 -3 4 -12 1 -19z m-12 -95 c-3 -38 -8 -81 -10
-98 -2 -16 -7 -82 -10 -145 -4 -63 -10 -151 -15 -195 -15 -151 -19 -874 -7
-1120 16 -317 58 -712 112 -1050 43 -270 133 -679 190 -865 13 -41 35 -115 50
-165 106 -358 240 -731 344 -958 104 -227 194 -414 291 -603 61 -119 108 -219
106 -221 -4 -5 -116 162 -116 173 0 2 -11 21 -23 42 -26 40 -122 220 -170 317
-82 167 -182 377 -207 435 -15 36 -50 117 -78 181 -28 64 -94 244 -146 400
-234 701 -325 1128 -402 1889 -51 510 -37 1291 31 1700 8 47 17 103 20 125 3
22 7 51 10 65 3 14 8 41 11 60 3 19 7 44 9 55 2 11 4 26 4 33 1 6 4 12 7 12 3
0 3 -30 -1 -67z m13251 -1510 c-3 -27 -8 -102 -12 -168 -3 -66 -8 -138 -10
-160 -1 -22 -6 -85 -9 -140 -3 -55 -8 -108 -11 -118 -3 -10 -7 -42 -9 -70 -3
-45 -6 -52 -25 -55 -20 -3 -21 -1 -16 45 13 109 15 132 20 213 7 102 17 331
20 415 2 69 9 85 38 85 18 0 19 -5 14 -47z m-440 -878 c-15 -68 -15 -68 -10
-15 6 70 17 119 21 100 2 -8 -3 -46 -11 -85z m317 46 c21 -5 41 -11 44 -14 5
-6 -71 -383 -107 -527 -5 -19 -14 -60 -21 -90 -6 -30 -18 -75 -25 -100 -8 -25
-15 -54 -17 -65 -4 -25 -21 -83 -55 -195 -14 -47 -26 -87 -27 -90 -4 -21 -29
-87 -35 -95 -5 -5 -8 -12 -7 -15 2 -10 -26 -105 -34 -115 -5 -5 -9 -17 -9 -27
0 -10 -4 -18 -10 -18 -5 0 -10 -9 -10 -19 0 -11 -5 -23 -10 -26 -6 -4 -8 -10
-5 -15 3 -5 1 -11 -4 -15 -5 -3 -8 -14 -6 -25 2 -11 0 -20 -5 -20 -4 0 -16
-25 -25 -55 -10 -30 -21 -55 -26 -55 -4 0 -8 -8 -7 -17 0 -29 -37 -114 -47
-106 -4 5 -5 3 -2 -4 9 -15 -2 -45 -14 -37 -5 3 -6 -2 -3 -10 3 -9 1 -16 -5
-16 -17 0 -12 37 17 110 3 8 6 18 7 23 2 4 3 8 5 10 1 1 3 11 5 22 12 67 18
91 25 95 4 3 11 23 15 45 11 55 11 54 28 105 9 25 18 59 21 75 3 17 15 59 27
95 22 69 26 84 36 140 3 19 9 37 13 40 4 3 10 25 14 50 3 25 15 79 27 120 22
79 29 114 54 245 8 44 17 89 19 100 26 118 35 173 41 250 4 50 11 114 15 143
4 30 6 67 5 83 -2 26 0 29 29 29 17 0 48 -4 69 -9z m205 -30 c12 -7 11 -23 -3
-92 -21 -102 -52 -207 -70 -235 -8 -12 -16 -40 -18 -64 -2 -23 -10 -46 -18
-51 -12 -7 -12 -9 0 -9 10 0 11 -4 3 -12 -6 -7 -10 -16 -10 -21 1 -30 -15 -74
-26 -74 -17 0 -12 37 6 49 9 5 9 8 1 8 -8 0 -9 8 -3 28 20 63 29 132 30 217 0
50 2 99 5 110 2 11 4 50 4 88 l1 67 43 0 c23 0 48 -4 55 -9z m-13093 -364 c77
-377 165 -707 305 -1142 67 -210 80 -256 71 -250 -13 7 -104 244 -165 425 -75
225 -189 650 -215 800 -23 136 -50 317 -56 375 -9 103 12 30 60 -208z m12412
-1401 c0 -8 -6 -12 -15 -9 -11 5 -11 7 0 14 7 5 13 9 14 9 0 0 1 -6 1 -14z
m-23 -25 c3 -5 -2 -15 -12 -22 -15 -12 -16 -12 -5 2 7 9 10 19 6 22 -3 4 -4 7
0 7 3 0 8 -4 11 -9z m-11241 -1719 c21 -28 45 -52 53 -52 25 0 16 -40 -12 -50
-36 -14 -44 -13 -44 8 0 9 -25 55 -55 100 -30 46 -55 86 -55 89 0 3 -8 17 -19
31 -10 15 -22 38 -26 52 -8 26 88 -81 158 -178z m207 -7 c0 -8 -6 -15 -14 -15
-17 0 -28 14 -19 24 12 12 33 6 33 -9z m1376 -1585 c1 -35 -1 -40 -22 -40 -13
0 -27 -8 -33 -17 -12 -23 -25 -11 -17 15 6 16 60 82 69 82 1 0 3 -18 3 -40z
m2968 -1061 c8 -9 3 -10 -19 -4 -16 4 -43 7 -60 6 -16 0 -43 4 -60 9 -23 8
-12 9 49 5 44 -3 85 -10 90 -16z m46 -1 c0 -4 -7 -8 -15 -8 -8 0 -15 4 -15 8
0 5 7 9 15 9 8 0 15 -4 15 -9z"/>
<path d="M9648 16694 c-21 -24 -38 -68 -38 -99 0 -22 -4 -24 -77 -29 -416 -31
-690 -74 -1062 -166 -411 -102 -938 -308 -1291 -505 -174 -98 -378 -220 -395
-237 -15 -16 29 8 140 77 120 74 396 224 480 260 244 107 207 92 455 188 480
187 1182 334 1627 340 107 2 118 0 121 -17 6 -29 -7 -35 -108 -41 -52 -3 -111
-8 -130 -11 -19 -2 -100 -11 -180 -19 -80 -9 -170 -20 -200 -25 -30 -5 -73
-12 -95 -16 -22 -3 -52 -7 -67 -8 -16 0 -28 -3 -28 -6 0 -3 -28 -7 -62 -8 -41
-2 -70 -9 -82 -20 -11 -10 -16 -11 -11 -3 5 10 3 12 -11 7 -22 -7 -110 -27
-214 -51 -67 -15 -237 -65 -390 -115 -141 -46 -637 -254 -725 -304 -22 -13
-76 -42 -120 -66 -141 -76 -375 -220 -558 -344 -166 -112 -179 -119 -194 -103
-16 15 -15 18 8 44 13 15 16 21 6 14 -14 -11 -23 -11 -43 -2 -62 28 -82 19
-251 -119 -190 -154 -466 -411 -613 -571 l-104 -114 129 125 c207 199 577 504
574 473 0 -4 -32 -35 -71 -68 -133 -112 -584 -569 -720 -730 -307 -361 -662
-897 -848 -1280 -76 -158 -229 -505 -260 -590 -10 -27 -41 -110 -69 -183 -28
-72 -75 -214 -105 -315 -162 -538 -245 -1008 -297 -1672 -10 -135 -15 -808 -5
-823 2 -4 7 -84 11 -177 4 -94 8 -176 10 -182 3 -7 0 -13 -6 -13 -6 0 -7 -4
-4 -10 3 -5 0 -10 -9 -10 -10 0 -17 18 -24 63 -20 129 -11 -1 13 -201 61 -490
187 -1012 374 -1547 146 -419 430 -1000 670 -1375 289 -450 661 -908 987
-1216 431 -406 751 -650 1190 -906 382 -223 630 -338 1069 -495 578 -206 1261
-322 1900 -323 453 0 1140 95 1510 210 592 184 957 336 1340 560 99 58 189
112 201 120 29 21 44 53 44 94 0 34 4 38 98 99 201 131 548 415 817 670 157
149 407 425 542 599 59 76 71 87 93 82 82 -16 105 -16 122 2 9 11 83 116 165
234 341 492 646 1122 847 1750 118 370 243 890 281 1169 91 668 114 1308 64
1801 -58 587 -189 1196 -368 1720 -252 738 -623 1430 -1084 2018 -202 259
-331 404 -570 644 -547 548 -1244 1018 -1935 1304 -386 160 -663 248 -1056
334 -90 20 -135 26 -152 20 -13 -5 -36 -31 -51 -57 l-28 -48 -45 6 c-25 4
-121 17 -215 28 -254 32 -235 27 -235 62 0 48 -27 96 -58 103 -15 3 -157 8
-317 12 -277 6 -291 6 -307 -12z m843 -194 c108 -11 226 -26 262 -34 48 -10
69 -10 77 -2 12 11 10 -22 -5 -109 -5 -33 -3 -44 15 -62 11 -13 31 -25 43 -28
469 -105 707 -181 1122 -356 218 -91 542 -262 756 -397 587 -371 1120 -857
1557 -1421 164 -211 204 -269 362 -516 217 -341 412 -724 555 -1090 127 -324
181 -495 304 -945 28 -103 115 -600 140 -795 40 -321 46 -431 44 -810 -2 -437
-17 -657 -79 -1115 -54 -403 -241 -1109 -392 -1486 -210 -522 -416 -919 -675
-1299 -83 -120 -152 -227 -155 -237 -6 -24 31 -92 68 -125 l30 -28 -76 -95
c-276 -340 -504 -575 -804 -829 -337 -285 -633 -503 -661 -485 -7 4 -9 22 -6
45 4 34 2 41 -24 60 -16 11 -45 23 -64 26 -31 5 -55 -7 -227 -109 -339 -203
-665 -347 -1133 -501 -591 -195 -1312 -290 -1904 -251 -672 44 -1155 154
-1802 407 -392 154 -964 481 -1293 740 -612 480 -1067 978 -1480 1617 -240
373 -508 922 -653 1339 -220 634 -334 1181 -385 1836 -17 222 -17 844 0 1040
86 988 287 1721 705 2570 189 384 545 910 849 1255 199 227 557 573 765 742
95 76 178 148 183 159 6 11 10 43 8 71 l-3 51 130 89 c714 491 1384 771 2237
937 147 28 453 64 648 74 l85 5 20 -31 20 -32 265 -7 c146 -3 284 -9 308 -12
34 -5 46 -2 62 14 11 11 20 27 20 35 0 10 10 15 33 15 46 0 276 -28 381 -46
48 -8 90 -13 93 -10 12 11 -10 24 -49 29 -238 31 -405 60 -441 76 -23 10 -55
19 -70 19 -41 -1 -57 19 -26 31 13 5 33 7 44 5 11 -2 108 -13 216 -24z m2177
-722 c7 -7 12 -8 12 -2 0 5 4 4 8 -1 7 -11 39 -31 132 -83 24 -14 121 -77 215
-140 93 -64 190 -129 215 -146 75 -50 428 -345 534 -446 109 -104 363 -362
445 -452 212 -231 528 -667 743 -1023 281 -465 520 -1031 686 -1625 82 -290
86 -309 122 -510 17 -96 35 -195 40 -220 16 -74 19 -97 44 -285 25 -186 28
-216 47 -475 20 -266 -2 -1033 -36 -1225 -3 -16 -18 -133 -35 -258 -16 -126
-31 -231 -34 -235 -2 -4 -7 -23 -10 -42 -12 -74 -47 -228 -77 -334 -17 -61
-34 -129 -39 -151 -26 -120 -115 -403 -175 -560 -15 -38 -33 -89 -40 -111 -7
-23 -18 -50 -24 -60 -5 -11 -20 -47 -32 -82 -12 -34 -24 -60 -27 -58 -2 3 5
29 16 58 19 50 73 219 78 245 1 7 13 47 27 90 46 145 76 247 106 373 16 69 44
184 61 255 69 288 95 444 139 835 38 332 44 450 45 875 1 352 -9 507 -55 845
-28 211 -116 679 -148 795 -16 55 -45 161 -66 235 -77 280 -239 734 -347 975
-35 77 -209 421 -266 525 -199 365 -580 901 -849 1196 -194 213 -425 438 -608
595 -99 85 -188 161 -197 169 -9 8 -55 42 -103 75 -47 33 -137 97 -199 142
-62 44 -162 112 -222 149 -122 76 -161 104 -147 104 5 0 14 -5 21 -12z m-6283
-478 c0 -22 -39 -19 -43 3 -3 15 1 18 20 15 12 -2 23 -10 23 -18z m93 -18 c3
-16 -1 -20 -12 -16 -19 7 -22 48 -3 42 6 -3 13 -14 15 -26z m8759 -1962 c71
-134 243 -476 243 -483 0 -3 42 -113 94 -244 51 -131 112 -294 134 -363 69
-211 184 -633 197 -721 3 -24 9 -53 12 -64 3 -13 2 -17 -5 -10 -5 6 -17 44
-27 85 -23 104 -136 494 -197 680 -99 304 -268 709 -425 1021 -81 162 -149
299 -151 304 -9 26 81 -120 125 -205z m572 -1792 c-1 -1 3 -12 9 -23 36 -69
126 -574 157 -880 24 -249 33 -714 19 -1045 -10 -238 -88 -866 -104 -840 -4 6
-3 37 2 70 11 82 35 327 54 555 23 280 24 895 1 1120 -32 310 -46 418 -92 690
-26 152 -30 180 -41 270 -3 33 -8 68 -10 79 -2 10 -1 16 2 13 3 -3 5 -7 3 -9z
m114 -128 c3 -11 1 -18 -4 -14 -5 3 -9 12 -9 20 0 20 7 17 13 -6z m4 -52 c-3
-8 -6 -5 -6 6 -1 11 2 17 5 13 3 -3 4 -12 1 -19z m-12007 -243 c-19 -154 -37
-351 -45 -482 -4 -56 -10 -137 -14 -180 -14 -131 2 -786 24 -1013 2 -25 7 -74
10 -110 52 -603 166 -1134 371 -1734 172 -504 517 -1194 785 -1570 28 -39 83
-116 122 -172 40 -55 121 -163 181 -240 92 -117 147 -182 324 -384 7 -8 30
-33 50 -54 l37 -39 -42 33 c-23 18 -70 65 -105 104 -35 39 -88 98 -119 131
-152 163 -434 536 -616 815 -235 362 -509 920 -653 1330 -33 96 -65 186 -70
200 -28 77 -124 421 -164 585 -194 812 -239 1751 -121 2555 8 52 16 118 19
145 7 62 27 158 31 153 2 -2 0 -35 -5 -73z m11847 -447 c-3 -8 -6 -5 -6 6 -1
11 2 17 5 13 3 -3 4 -12 1 -19z m11 -134 l-3 -39 -5 47 c-3 26 -1 43 3 39 5
-5 7 -26 5 -47z m9 -101 c-3 -10 -5 -4 -5 12 0 17 2 24 5 18 2 -7 2 -21 0 -30z
m10 -170 c-3 -10 -5 -4 -5 12 0 17 2 24 5 18 2 -7 2 -21 0 -30z m8 -105 c4
-43 3 -78 -1 -78 -5 0 -10 37 -11 82 -3 101 3 99 12 -4z m0 -295 c-9 -381 -15
-477 -46 -748 -46 -414 -73 -569 -159 -916 -117 -475 -255 -879 -415 -1224
-32 -69 -88 -192 -102 -224 -8 -18 -16 -31 -19 -29 -2 3 9 36 26 74 37 82 47
105 90 209 18 44 44 105 58 135 60 134 149 385 222 620 18 58 38 124 46 148 8
23 14 49 14 56 0 8 7 36 15 62 30 98 113 450 141 599 15 79 17 91 28 170 58
413 82 710 87 1088 1 103 6 187 11 187 4 0 6 -93 3 -207z m-11735 -1237 c79
-383 260 -995 384 -1295 26 -62 45 -115 43 -117 -8 -8 -107 223 -166 388 -80
225 -160 493 -215 724 -39 165 -76 358 -76 396 0 30 11 -7 30 -96z m11304
-1391 c-4 -8 -8 -15 -10 -15 -2 0 -4 7 -4 15 0 8 4 15 10 15 5 0 7 -7 4 -15z
m-314 -535 c0 -5 -5 -10 -11 -10 -5 0 -7 5 -4 10 3 6 8 10 11 10 2 0 4 -4 4
-10z m-9275 -1580 c3 -5 1 -10 -4 -10 -6 0 -11 5 -11 10 0 6 2 10 4 10 3 0 8
-4 11 -10z m7171 -839 c-10 -16 -23 -14 -30 5 -9 25 4 38 21 21 9 -8 12 -20 9
-26z m-78 -43 c16 -16 15 -48 -1 -48 -19 0 -37 21 -37 42 0 21 20 24 38 6z
m60 -62 c3 -12 -1 -17 -10 -14 -7 3 -15 13 -16 22 -3 12 1 17 10 14 7 -3 15
-13 16 -22z"/>
<path d="M11610 15368 c-168 -21 -1095 -137 -2060 -258 -965 -121 -1764 -222
-1776 -225 -28 -6 -144 -115 -168 -156 l-19 -34 21 19 c17 15 14 5 -14 -52
-42 -84 -70 -210 -60 -274 8 -55 58 -132 111 -173 22 -17 41 -38 43 -46 3 -11
1 -12 -9 -1 -7 6 -20 12 -30 12 -9 0 -38 19 -64 42 -61 54 -43 17 20 -41 52
-48 158 -101 249 -125 46 -11 66 -23 89 -51 39 -47 126 -111 190 -140 72 -31
495 -178 587 -203 41 -12 97 -24 124 -28 l48 -7 -7 34 c-22 97 -100 242 -166
305 -16 15 -29 34 -29 41 0 19 35 -3 79 -51 88 -95 126 -186 178 -421 17 -75
18 -216 20 -2322 2 -1343 -1 -2243 -7 -2243 -5 0 -11 10 -13 23 -2 12 -5 -31
-6 -95 -1 -99 1 -118 14 -118 8 0 15 -5 15 -11 0 -6 -7 -9 -15 -5 -14 5 -15
-87 -15 -845 1 -468 0 -853 -2 -855 -2 -2 -25 3 -51 11 -26 8 -124 19 -218 26
-137 9 -189 9 -258 -1 -47 -7 -112 -12 -144 -11 -80 2 -210 -21 -482 -85 -236
-56 -408 -105 -435 -125 -12 -9 -11 -10 5 -4 73 26 219 57 330 71 56 7 402
-21 437 -35 30 -12 58 -21 61 -19 3 2 90 -53 97 -61 3 -3 30 -23 60 -44 30
-20 84 -60 120 -87 93 -71 148 -103 165 -96 15 5 32 -17 38 -51 2 -10 11 -36
21 -58 10 -22 30 -71 46 -110 15 -38 31 -79 35 -90 5 -11 9 -22 10 -25 7 -30
30 -88 38 -97 5 -7 6 -13 3 -13 -4 0 -1 -10 5 -22 6 -13 8 -20 4 -16 -4 4 -13
2 -20 -5 -9 -9 -8 -20 7 -54 15 -33 17 -52 11 -90 -5 -29 -14 -48 -22 -48 -17
0 -97 176 -188 415 -72 192 -74 196 -131 248 -93 86 -209 170 -291 210 l-76
37 -193 -2 c-106 0 -199 -4 -208 -7 -8 -3 -27 0 -42 8 -31 15 -23 16 -197 -18
-195 -37 -248 -46 -281 -46 -35 0 -198 -48 -274 -80 -61 -26 -183 -101 -195
-120 -4 -6 16 5 43 25 152 109 437 178 637 155 50 -5 94 -10 98 -10 5 0 6 -4
3 -8 -3 -5 -47 -7 -98 -4 -116 4 -219 -11 -368 -54 -173 -50 -288 -111 -371
-198 -23 -24 -38 -14 -18 11 13 16 12 17 -4 4 -10 -8 -15 -21 -12 -31 3 -10
-2 -23 -12 -31 -15 -12 -16 -12 -10 4 12 32 -1 17 -31 -35 -72 -126 -93 -263
-87 -570 4 -198 17 -265 86 -438 160 -399 493 -695 954 -848 167 -55 310 -86
597 -127 482 -68 640 -75 878 -39 95 15 271 64 323 91 16 8 65 21 110 29 195
34 300 75 629 250 222 117 321 179 413 259 33 28 80 65 105 82 25 17 77 59
116 94 384 346 609 934 696 1819 22 224 22 233 28 3240 5 2716 8 3021 22 3080
71 289 240 421 607 475 58 9 180 32 271 51 408 85 630 196 707 352 27 54 28
64 29 207 0 116 0 124 -3 35 -2 -63 -7 -118 -12 -123 -4 -4 -8 -2 -8 5 0 7 -3
76 -7 153 -4 95 -3 135 4 125 8 -13 10 -13 10 1 0 22 -50 88 -97 130 -22 19
-47 48 -56 64 -8 17 -33 48 -54 69 -54 56 -380 297 -491 363 -91 55 -93 56
-154 50 -62 -5 -63 -5 -143 48 -138 91 -98 87 -445 43z m205 -58 c3 -5 1 -10
-4 -10 -6 0 -11 5 -11 10 0 6 2 10 4 10 3 0 8 -4 11 -10z m73 -10 c4 -12 3
-13 -10 -3 -8 7 -18 10 -21 6 -4 -3 -7 -1 -7 6 0 17 32 10 38 -9z m-188 -10
c-8 -5 -17 -7 -19 -4 -3 3 1 9 9 14 8 5 17 7 19 4 3 -3 -1 -9 -9 -14z m60 11
c0 -6 -9 -9 -19 -8 -11 0 -17 5 -15 9 7 11 34 10 34 -1z m-110 -11 c-18 -12
-30 -13 -30 -2 0 4 10 9 22 9 18 2 20 0 8 -7z m-80 -8 c0 -4 -12 -8 -27 -9
-24 -1 -25 -1 -8 7 26 11 35 12 35 2z m743 -59 c94 -55 201 -152 192 -174 -4
-12 -16 -6 -48 24 -35 32 -156 117 -233 163 -15 9 -13 34 3 34 3 0 42 -21 86
-47z m-283 2 c11 -13 10 -14 -4 -9 -9 3 -16 10 -16 15 0 13 6 11 20 -6z m61
-51 c17 -18 19 -23 6 -18 -9 3 -17 10 -17 15 0 5 -3 8 -7 8 -17 -3 -24 2 -18
11 8 13 8 14 36 -16z m-36 -32 c-3 -3 -16 5 -28 17 l-22 23 28 -17 c15 -10 25
-20 22 -23z m92 -31 c20 -22 22 -35 22 -163 2 -176 -9 -200 -135 -298 -37 -28
-247 -120 -288 -125 -12 -1 -25 -4 -31 -5 -5 -1 -17 -2 -25 -1 -12 2 85 40
135 54 9 3 45 21 146 73 45 24 119 101 139 146 24 56 28 276 6 320 -18 34 -1
34 31 -1z m-57 0 c11 -22 14 -277 3 -284 -5 -3 -7 51 -6 120 2 95 -1 132 -13
154 -8 16 -10 29 -5 29 6 0 15 -9 21 -19z m162 -72 c1 -128 -2 -212 -7 -207
-3 2 -7 69 -10 148 -3 100 -1 140 6 133 6 -6 10 -39 11 -74z m311 -45 c3 8 11
7 31 -2 45 -20 57 -65 57 -228 0 -151 -9 -189 -40 -179 -11 3 -35 -12 -71 -46
-50 -46 -186 -136 -250 -166 -94 -43 -202 -84 -212 -80 -8 4 -7 6 3 6 9 1 48
15 85 33 156 72 248 148 295 245 18 38 22 63 23 178 1 128 0 135 -21 146 -12
7 -19 18 -16 26 4 11 8 11 21 1 13 -11 15 -9 9 17 -4 17 -9 40 -13 53 l-7 23
51 -19 c35 -14 52 -16 55 -8z m-103 -116 c0 -18 -2 -20 -9 -8 -6 8 -7 18 -5
22 9 14 14 9 14 -14z m-4 -108 c0 -22 -2 -38 -4 -35 -8 8 -10 75 -3 75 4 0 7
-18 7 -40z m441 -41 c39 -14 45 -42 41 -189 -1 -76 -7 -142 -11 -147 -5 -4
-15 1 -23 11 -8 11 -14 17 -14 13 0 -5 -7 -2 -15 5 -35 29 -54 51 -50 58 3 4
-4 10 -16 13 -16 4 -19 10 -13 33 5 18 3 25 -4 20 -6 -3 -14 -1 -18 5 -4 8 -3
9 4 5 7 -4 12 -1 12 9 0 10 -5 13 -12 9 -7 -4 -8 -3 -4 5 4 6 11 9 16 6 5 -3
9 11 8 30 -1 20 4 40 11 44 6 4 11 21 9 37 -4 55 8 60 79 33z m-5270 -106
c-20 -39 -47 -136 -47 -167 0 -14 -4 -26 -10 -26 -16 0 1 102 28 163 13 31 29
57 34 57 5 0 2 -12 -5 -27z m4048 -113 c4 -6 3 -10 -2 -9 -4 1 -21 -3 -36 -9
-34 -15 -37 -15 -37 -2 0 6 11 10 24 10 14 0 28 5 31 10 8 13 12 13 20 0z
m-135 -34 c0 -2 -7 -7 -16 -10 -8 -3 -12 -2 -9 4 6 10 25 14 25 6z m-150 -36
c-8 -5 -19 -10 -25 -10 -5 0 -3 5 5 10 8 5 20 10 25 10 6 0 3 -5 -5 -10z
m-697 -215 c-3 -8 -9 -15 -14 -15 -15 0 -84 -74 -129 -140 -81 -117 -124 -233
-145 -395 -4 -27 -9 -1137 -11 -2465 -2 -1328 -6 -2575 -9 -2770 -4 -195 -6
-359 -6 -365 0 -5 1 -32 2 -60 2 -84 -1 -125 -9 -125 -9 0 -11 92 -17 795 -5
575 -6 4934 -2 4955 2 8 7 33 11 55 26 144 43 196 92 290 36 68 134 184 179
211 41 24 55 40 47 49 -4 5 -2 5 5 1 7 -4 10 -13 6 -21z m447 -169 c0 -2 -7
-7 -16 -10 -8 -3 -12 -2 -9 4 6 10 25 14 25 6z m-65 -39 c-109 -80 -167 -180
-185 -321 -5 -39 -12 -93 -16 -121 -7 -50 -7 -50 14 -32 20 18 21 18 29 0 5
-10 8 -46 7 -80 -3 -60 7 -82 20 -47 3 8 2 12 -4 9 -6 -3 -10 -2 -10 3 0 6 7
12 15 16 18 6 19 -2 5 -41 -9 -24 -8 -26 3 -11 8 10 17 15 21 11 4 -4 4 1 0
12 -5 16 -4 18 6 8 7 -6 19 -9 27 -6 8 3 21 -3 29 -13 9 -11 13 -13 9 -7 -4 9
-1 11 9 7 9 -3 13 -11 9 -18 -4 -7 -1 -7 7 1 11 10 17 10 29 0 12 -10 13 -9 6
3 -8 13 -6 13 8 2 9 -8 22 -12 29 -9 7 2 25 -2 41 -10 16 -8 27 -9 27 -3 0 5
5 10 11 10 5 0 7 -5 3 -12 -5 -8 0 -9 15 -5 l22 5 -3 -751 c-2 -608 -5 -751
-16 -749 -10 2 -10 -2 -2 -17 11 -22 10 -71 -3 -71 -4 0 -5 -6 -1 -12 5 -7 9
-31 10 -53 1 -22 -1 -34 -3 -27 -3 6 -9 9 -15 6 -6 -4 -6 2 1 14 17 33 12 39
-9 12 -15 -18 -18 -20 -13 -6 4 13 3 17 -5 12 -6 -3 -13 -2 -17 3 -3 6 -13 7
-23 4 -15 -6 -16 -5 -2 12 13 17 13 18 -1 13 -9 -4 -22 -2 -28 3 -8 6 -8 5 -1
-3 15 -18 12 -48 -5 -54 -11 -5 -12 -10 -2 -25 14 -23 29 -25 21 -4 -6 16 12
45 27 45 5 0 6 -7 3 -15 -4 -8 -10 -12 -15 -9 -12 7 -11 -3 1 -27 10 -17 7
-19 -30 -17 -31 1 -37 4 -25 10 13 8 14 13 4 24 -9 11 -15 12 -26 2 -11 -9
-13 -8 -11 3 2 9 -8 14 -32 15 -19 1 -29 0 -22 -3 14 -5 17 -33 3 -33 -4 0 -8
-10 -7 -22 1 -17 -5 -24 -22 -26 -20 -3 -21 -6 -10 -20 10 -12 10 -14 1 -8 -7
4 -13 3 -13 -3 0 -5 6 -11 13 -14 9 -4 9 -7 -1 -18 -7 -8 -13 -9 -12 -4 5 21
-1 27 -14 16 -11 -9 -15 -8 -20 5 -4 12 -2 15 9 10 10 -4 15 1 15 14 0 27 -3
36 -13 32 -5 -1 -6 1 -4 5 3 5 0 18 -7 31 -9 18 -12 -15 -15 -175 -1 -108 -5
-201 -7 -205 -3 -4 0 -8 6 -8 6 0 9 -4 6 -9 -9 -14 -15 -488 -17 -1403 -1
-466 -6 -845 -11 -842 -12 7 -10 -10 2 -22 7 -7 6 -11 -4 -11 -9 0 -13 9 -11
24 1 13 -1 23 -5 23 -4 0 -8 -37 -8 -82 -1 -46 -3 -137 -6 -203 -2 -66 -5
-383 -7 -705 -1 -322 -6 -688 -10 -815 -9 -248 -49 -657 -79 -795 -51 -244
-95 -411 -145 -560 -59 -171 -152 -383 -166 -374 -4 2 8 48 27 102 101 281
199 776 229 1152 8 107 18 215 22 240 3 25 7 1496 8 3270 2 2929 4 3233 19
3311 37 196 126 336 273 429 54 35 82 40 38 7z m-3018 -22 c116 -42 254 -82
303 -89 197 -28 267 -36 340 -40 100 -6 90 -4 90 -15 0 -9 -87 -7 -205 3 -99
9 -177 16 -225 20 -39 4 -101 14 -189 31 -78 15 -206 77 -222 107 -13 25 -6
24 108 -17z m2329 -92 c-21 -60 -30 -99 -52 -218 -4 -26 -12 -2236 -14 -3974
0 -299 -2 -542 -5 -539 -9 9 -5 4462 4 4518 22 128 69 280 86 280 3 0 -6 -30
-19 -67z m-1397 -339 c11 -60 23 -129 26 -154 11 -83 16 -5480 5 -5480 -6 0
-10 35 -10 88 -1 48 -3 337 -5 642 -3 305 -7 1501 -9 2657 -3 1157 -7 2106 -9
2110 -3 5 -8 41 -11 82 -3 40 -8 76 -11 80 -2 4 -5 24 -7 44 -1 21 -5 37 -8
37 -3 0 -6 12 -7 28 l-1 27 13 -26 c8 -14 23 -74 34 -135z m2091 -1906 c0 -8
-16 -12 -32 -9 -5 0 -8 -6 -8 -15 0 -9 5 -12 12 -8 7 4 8 3 4 -5 -11 -17 -26
-3 -24 22 1 16 8 22 25 22 13 0 23 -3 23 -7z m39 -27 c9 -6 10 -11 2 -15 -6
-4 -11 -2 -11 4 0 7 -7 7 -22 -1 -21 -11 -22 -11 -9 4 15 19 20 20 40 8z m-87
-36 c8 -11 1 -25 -14 -25 -6 0 -8 3 -5 7 4 3 2 12 -5 20 -9 11 -8 13 3 11 8
-2 17 -7 21 -13z m31 -29 c4 -10 1 -13 -8 -9 -8 3 -12 9 -9 14 7 12 11 11 17
-5z m-40 -41 c4 -8 2 -17 -3 -20 -6 -4 -10 3 -10 14 0 25 6 27 13 6z m-706
-2447 c-3 -7 -5 -2 -5 12 0 14 2 19 5 13 2 -7 2 -19 0 -25z m-1350 -188 c-2
-87 -17 -93 -17 -7 0 55 5 77 16 77 2 0 2 -31 1 -70z m1350 28 c-3 -8 -6 -5
-6 6 -1 11 2 17 5 13 3 -3 4 -12 1 -19z m-1352 -118 c3 -5 1 -10 -4 -10 -6 0
-11 5 -11 10 0 6 2 10 4 10 3 0 8 -4 11 -10z m0 -115 c-3 -49 -11 -53 -12 -5
0 22 2 40 6 40 4 0 7 -16 6 -35z m59 -809 c1 -20 -2 -36 -6 -36 -5 0 -8 19 -8
42 0 50 11 45 14 -6z m1361 -5 c3 -5 2 -12 -2 -14 -5 -3 -8 -35 -8 -71 1 -89
-9 -73 -11 19 -2 68 5 91 21 66z m-1368 -63 c-3 -8 -6 -5 -6 6 -1 11 2 17 5
13 3 -3 4 -12 1 -19z m13 -72 c0 -3 -4 -8 -10 -11 -5 -3 -10 -1 -10 4 0 6 5
11 10 11 6 0 10 -2 10 -4z m1350 -152 c0 -8 -5 -12 -10 -9 -6 4 -8 11 -5 16 9
14 15 11 15 -7z m0 -49 c0 -8 -3 -16 -7 -18 -5 -3 -8 5 -8 18 0 13 3 21 8 18
4 -2 7 -10 7 -18z m-2812 -810 c3 -3 -7 -5 -21 -5 -15 0 -27 4 -27 9 0 10 38
7 48 -4z m592 -340 c11 -22 33 -78 49 -125 17 -47 42 -116 56 -155 15 -38 28
-74 29 -80 2 -5 15 -37 30 -70 16 -33 39 -85 53 -115 14 -30 43 -85 64 -122
37 -63 48 -98 32 -98 -36 0 -161 260 -288 600 -61 161 -70 178 -115 223 -28
27 -50 53 -50 58 0 6 -5 7 -12 3 -7 -4 -8 -3 -4 4 11 19 134 -77 156 -123z
m540 -695 c-13 -24 -87 -80 -107 -80 -26 0 -13 26 20 38 17 6 46 23 62 37 37
30 38 30 25 5z"/>
<path d="M11208 11903 c7 -3 16 -2 19 1 4 3 -2 6 -13 5 -11 0 -14 -3 -6 -6z"/>
<path d="M11194 11811 c4 -5 1 -22 -4 -37 -12 -31 -2 -48 20 -34 12 7 12 12 2
22 -16 16 -15 29 2 22 7 -3 16 2 19 10 4 10 1 13 -9 9 -7 -3 -14 0 -14 6 0 6
-5 11 -11 11 -5 0 -8 -4 -5 -9z"/>
<path d="M11116 11802 c-3 -5 1 -9 9 -9 8 0 12 4 9 9 -3 4 -7 8 -9 8 -2 0 -6
-4 -9 -8z"/>
<path d="M10921 11764 c0 -11 3 -14 6 -6 3 7 2 16 -1 19 -3 4 -6 -2 -5 -13z"/>
<path d="M11037 11752 c-20 -22 -21 -32 -5 -32 6 0 8 3 5 7 -4 3 0 15 10 25 9
10 14 18 11 18 -3 0 -12 -8 -21 -18z"/>
<path d="M11067 11732 c11 -30 15 -33 26 -23 7 5 16 9 22 9 5 0 11 6 14 13 2
6 -3 9 -10 7 -8 -3 -24 -1 -36 3 -18 7 -21 5 -16 -9z"/>
<path d="M10990 11730 c0 -5 5 -10 11 -10 5 0 7 5 4 10 -3 6 -8 10 -11 10 -2
0 -4 -4 -4 -10z"/>
<path d="M10920 11714 c0 -8 5 -12 10 -9 6 3 10 10 10 16 0 5 -4 9 -10 9 -5 0
-10 -7 -10 -16z"/>
<path d="M10961 11725 c-11 -52 -9 -74 7 -86 14 -11 15 -11 5 1 -20 22 -16 43
6 37 19 -5 23 15 6 30 -4 4 -5 2 -1 -4 4 -7 3 -13 -3 -13 -5 0 -12 10 -14 23
-2 12 -5 18 -6 12z"/>
<path d="M8941 10554 c0 -11 3 -14 6 -6 3 7 2 16 -1 19 -3 4 -6 -2 -5 -13z"/>
<path d="M8941 10334 c0 -11 3 -14 6 -6 3 7 2 16 -1 19 -3 4 -6 -2 -5 -13z"/>
<path d="M8941 10294 c0 -11 3 -14 6 -6 3 7 2 16 -1 19 -3 4 -6 -2 -5 -13z"/>
<path d="M8942 10205 c0 -16 2 -22 5 -12 2 9 2 23 0 30 -3 6 -5 -1 -5 -18z"/>
<path d="M8942 10150 c0 -14 2 -19 5 -12 2 6 2 18 0 25 -3 6 -5 1 -5 -13z"/>
<path d="M8943 10080 c0 -25 2 -35 4 -22 2 12 2 32 0 45 -2 12 -4 2 -4 -23z"/>
<path d="M8943 9975 c0 -33 2 -45 4 -27 2 18 2 45 0 60 -2 15 -4 0 -4 -33z"/>
<path d="M8942 9885 c0 -16 2 -22 5 -12 2 9 2 23 0 30 -3 6 -5 -1 -5 -18z"/>
<path d="M8943 9780 c0 -41 2 -58 4 -37 2 20 2 54 0 75 -2 20 -4 3 -4 -38z"/>
<path d="M8943 9615 c0 -38 2 -53 4 -32 2 20 2 52 0 70 -2 17 -4 1 -4 -38z"/>
<path d="M8943 9485 c0 -27 2 -38 4 -22 2 15 2 37 0 50 -2 12 -4 0 -4 -28z"/>
<path d="M8943 9380 c0 -30 2 -43 4 -27 2 15 2 39 0 55 -2 15 -4 2 -4 -28z"/>
<path d="M8943 9265 c0 -22 2 -30 4 -17 2 12 2 30 0 40 -3 9 -5 -1 -4 -23z"/>
<path d="M8942 9195 c0 -16 2 -22 5 -12 2 9 2 23 0 30 -3 6 -5 -1 -5 -18z"/>
<path d="M8943 9105 c0 -27 2 -38 4 -22 2 15 2 37 0 50 -2 12 -4 0 -4 -28z"/>
<path d="M8941 9034 c0 -11 3 -14 6 -6 3 7 2 16 -1 19 -3 4 -6 -2 -5 -13z"/>
<path d="M7300 6860 c-8 -5 -10 -10 -5 -10 6 0 17 5 25 10 8 5 11 10 5 10 -5
0 -17 -5 -25 -10z"/>
<path d="M6712 15615 c-28 -20 -52 -38 -52 -40 0 -3 25 11 55 31 48 32 62 44
52 44 -1 0 -26 -16 -55 -35z"/>
<path d="M6560 15509 c-22 -18 -22 -19 -3 -10 12 6 25 16 28 21 9 15 3 12 -25
-11z"/>
<path d="M6479 15453 c-13 -16 -12 -17 4 -4 16 13 21 21 13 21 -2 0 -10 -8
-17 -17z"/>
<path d="M4569 14863 c-13 -16 -12 -17 4 -4 9 7 17 15 17 17 0 8 -8 3 -21 -13z"/>
<path d="M16566 11665 c8 -37 14 -45 14 -19 0 10 -5 26 -10 34 -8 11 -9 7 -4
-15z"/>
<path d="M16790 10670 c-7 -14 -9 -51 -6 -103 3 -45 8 -219 11 -387 3 -168 8
-320 11 -337 l5 -33 66 0 66 0 -7 333 c-7 347 -13 462 -25 512 -7 28 -11 30
-58 33 -44 3 -53 0 -63 -18z"/>
<path d="M3051 10094 c0 -11 3 -14 6 -6 3 7 2 16 -1 19 -3 4 -6 -2 -5 -13z"/>
</g>
</svg>
